<svg xmlns="http://www.w3.org/2000/svg" style="display: none;">
    <symbol id="icon-arrow-down" >
        <path d="M10 13L4 7L16 7L10 13Z" fill="currentColor"/>
   </symbol>    
    <symbol id="icon-delete">
        <path d="M7 21C6.45 21 5.97933 20.8043 5.588 20.413C5.196 20.021 5 19.55 5 19V6C4.71667 6 4.479 5.90433 4.287 5.713C4.09567 5.521 4 5.28333 4 5C4 4.71667 4.09567 4.479 4.287 4.287C4.479 4.09567 4.71667 4 5 4H9C9 3.71667 9.096 3.479 9.288 3.287C9.47933 3.09567 9.71667 3 10 3H14C14.2833 3 14.521 3.09567 14.713 3.287C14.9043 3.479 15 3.71667 15 4H19C19.2833 4 19.5207 4.09567 19.712 4.287C19.904 4.479 20 4.71667 20 5C20 5.28333 19.904 5.521 19.712 5.713C19.5207 5.90433 19.2833 6 19 6V19C19 19.55 18.8043 20.021 18.413 20.413C18.021 20.8043 17.55 21 17 21H7ZM9 16C9 16.2833 9.096 16.5207 9.288 16.712C9.47933 16.904 9.71667 17 10 17C10.2833 17 10.521 16.904 10.713 16.712C10.9043 16.5207 11 16.2833 11 16V9C11 8.71667 10.9043 8.479 10.713 8.287C10.521 8.09567 10.2833 8 10 8C9.71667 8 9.47933 8.09567 9.288 8.287C9.096 8.479 9 8.71667 9 9V16ZM13 16C13 16.2833 13.096 16.5207 13.288 16.712C13.4793 16.904 13.7167 17 14 17C14.2833 17 14.521 16.904 14.713 16.712C14.9043 16.5207 15 16.2833 15 16V9C15 8.71667 14.9043 8.479 14.713 8.287C14.521 8.09567 14.2833 8 14 8C13.7167 8 13.4793 8.09567 13.288 8.287C13.096 8.479 13 8.71667 13 9V16Z" fill="currentColor"/>
    </symbol>   
    <symbol id="icon-edit">
        <path d="M19.3 8.925L15.05 4.725L16.45 3.325C16.8333 2.94167 17.3043 2.75 17.863 2.75C18.421 2.75 18.8917 2.94167 19.275 3.325L20.675 4.725C21.0583 5.10833 21.2583 5.571 21.275 6.113C21.2917 6.65433 21.1083 7.11667 20.725 7.5L19.3 8.925ZM17.85 10.4L7.25 21H3V16.75L13.6 6.15L17.85 10.4Z" fill="currentColor"/>
    </symbol>   
    <symbol id="icon-add">
        <path d="M8.25 14.25V9.75H3.75V8.25H8.25V3.75H9.75V8.25H14.25V9.75H9.75V14.25H8.25Z" fill="currentColor"/>
    </symbol>   
    <symbol id="icon-close">
    <path d="M6.4 19L5 17.6L10.6 12L5 6.4L6.4 5L12 10.6L17.6 5L19 6.4L13.4 12L19 17.6L17.6 19L12 13.4L6.4 19Z" fill="currentColor"/>
    </symbol>   
    <symbol id="icon-search">
        <path d="M9.16663 1.66675C13.3066 1.66675 16.6666 5.02675 16.6666 9.16675C16.6666 13.3067 13.3066 16.6667 9.16663 16.6667C5.02663 16.6667 1.66663 13.3067 1.66663 9.16675C1.66663 5.02675 5.02663 1.66675 9.16663 1.66675ZM9.16663 15.0001C12.3891 15.0001 15 12.3892 15 9.16675C15 5.94341 12.3891 3.33341 9.16663 3.33341C5.94329 3.33341 3.33329 5.94341 3.33329 9.16675C3.33329 12.3892 5.94329 15.0001 9.16663 15.0001ZM16.2375 15.0592L18.595 17.4159L17.4158 18.5951L15.0591 16.2376L16.2375 15.0592Z" fill="currentcolor"></path>
    </symbol> 
    <symbol id="icon-checkbox">
        <path d="M5 21C4.45 21 3.979 20.8043 3.587 20.413C3.19567 20.021 3 19.55 3 19V5C3 4.45 3.19567 3.979 3.587 3.587C3.979 3.19567 4.45 3 5 3H19C19.55 3 20.021 3.19567 20.413 3.587C20.8043 3.979 21 4.45 21 5V19C21 19.55 20.8043 20.021 20.413 20.413C20.021 20.8043 19.55 21 19 21H5ZM5 19H19V5H5V19Z" fill="currentColor"/>
    </symbol> 
</svg>